<svg width="93" height="137" viewBox="0 0 93 137" fill="none" xmlns="http://www.w3.org/2000/svg">
<path d="M46.0745 0C20.6691 0 0 20.6691 0 46.0745V134.271C0 135.778 1.22176 137 2.72903 137H89.4203C90.9273 137 92.1494 135.778 92.1494 134.271V46.0745C92.1494 20.6691 71.4803 0 46.0745 0ZM86.691 131.542H78.0017V113.15C78.0017 111.642 76.7797 110.421 75.2727 110.421C73.7657 110.421 72.5436 111.642 72.5436 113.15V131.542H63.4029V102.49C63.4029 100.983 62.1809 99.7609 60.6739 99.7609C59.1669 99.7609 57.9448 100.983 57.9448 102.49V131.542H48.8041V113.15C48.8041 111.642 47.5821 110.421 46.0751 110.421C44.5678 110.421 43.3461 111.642 43.3461 113.15V131.542H34.2053V102.49C34.2053 100.983 32.9836 99.7609 31.4763 99.7609C29.969 99.7609 28.7473 100.983 28.7473 102.49V131.542H19.6063V113.15C19.6063 111.642 18.3845 110.421 16.8772 110.421C15.37 110.421 14.1482 111.642 14.1482 113.15V131.542H5.45886V46.0745C5.45913 23.6785 23.6796 5.45806 46.0756 5.45806C68.4716 5.45806 86.6921 23.6785 86.6921 46.0745V131.542H86.691Z" fill="#D3D3DA"/>
<path d="M40.0546 51.1719H13.8667C12.3595 51.1719 11.1377 52.3936 11.1377 53.9009C11.1377 62.6258 18.2357 69.7239 26.9607 69.7239C35.6856 69.7239 42.7836 62.6258 42.7836 53.9009C42.7836 52.3936 41.5619 51.1719 40.0546 51.1719ZM26.9604 64.2658C22.1897 64.2658 18.1611 61.0252 16.9602 56.6302H36.9609C35.76 61.0252 31.7316 64.2658 26.9604 64.2658Z" fill="#D3D3DA"/>
<path d="M78.2826 51.1719H52.0947C50.5875 51.1719 49.3657 52.3936 49.3657 53.9009C49.3657 62.6258 56.464 69.7239 65.1887 69.7239C73.9133 69.7239 81.0116 62.6258 81.0116 53.9009C81.0119 52.3936 79.7896 51.1719 78.2826 51.1719ZM65.1889 64.2658C60.418 64.2658 56.3896 61.0252 55.1885 56.6302H75.1894C73.9885 61.0252 69.9599 64.2658 65.1889 64.2658Z" fill="#D3D3DA"/>
</svg>
