<svg width="11" height="16" viewBox="0 0 11 16" fill="none" xmlns="http://www.w3.org/2000/svg">
<path d="M5.38097 0C2.41391 0 0 2.41391 0 5.38097V15.6813C0 15.8573 0.142688 16 0.318719 16H10.4433C10.6193 16 10.762 15.8573 10.762 15.6813V5.38097C10.762 2.41391 8.34806 0 5.38097 0ZM10.1245 15.3626H9.10969V13.2146C9.10969 13.0385 8.96697 12.8958 8.79097 12.8958C8.61497 12.8958 8.47225 13.0385 8.47225 13.2146V15.3626H7.40472V11.9696C7.40472 11.7936 7.262 11.6509 7.086 11.6509C6.91 11.6509 6.76728 11.7936 6.76728 11.9696V15.3626H5.69975V13.2146C5.69975 13.0385 5.55703 12.8958 5.38103 12.8958C5.205 12.8958 5.06231 13.0385 5.06231 13.2146V15.3626H3.99478V11.9696C3.99478 11.7936 3.85209 11.6509 3.67606 11.6509C3.50003 11.6509 3.35734 11.7936 3.35734 11.9696V15.3626H2.28978V13.2146C2.28978 13.0385 2.14709 12.8958 1.97106 12.8958C1.79503 12.8958 1.65234 13.0385 1.65234 13.2146V15.3626H0.637531V5.38097C0.637563 2.76537 2.7655 0.637438 5.38109 0.637438C7.99669 0.637438 10.1246 2.76537 10.1246 5.38097V15.3626H10.1245Z" fill="#D3D3DA"/>
<path d="M4.67794 5.97632H1.6195C1.44347 5.97632 1.30078 6.11901 1.30078 6.29504C1.30078 7.31401 2.12975 8.14297 3.14872 8.14297C4.16769 8.14297 4.99666 7.31401 4.99666 6.29504C4.99666 6.11901 4.85397 5.97632 4.67794 5.97632ZM3.14869 7.50554C2.59153 7.50554 2.12103 7.12707 1.98078 6.61379H4.31663C4.17638 7.12707 3.70591 7.50554 3.14869 7.50554Z" fill="#D3D3DA"/>
<path d="M9.14229 5.97632H6.08385C5.90782 5.97632 5.76514 6.11901 5.76514 6.29504C5.76514 7.31401 6.59414 8.14297 7.61307 8.14297C8.63201 8.14297 9.46101 7.31401 9.46101 6.29504C9.46104 6.11901 9.31829 5.97632 9.14229 5.97632ZM7.61311 7.50554C7.05592 7.50554 6.58545 7.12707 6.44517 6.61379H8.78104C8.64079 7.12707 8.17029 7.50554 7.61311 7.50554Z" fill="#D3D3DA"/>
</svg>
