<svg width="28" height="28" viewBox="0 0 28 28" fill="none" xmlns="http://www.w3.org/2000/svg">
<path d="M27.1782 27.1782H0V0H27.1782V27.1782ZM9.76143 8.172C9.76207 7.94481 9.71572 7.71994 9.62529 7.51151C9.53487 7.30309 9.40231 7.11562 9.23596 6.96087C9.06962 6.80613 8.87306 6.68746 8.65865 6.61231C8.44425 6.53717 8.21661 6.50717 7.99006 6.52421C7.76509 6.50704 7.53899 6.53615 7.32571 6.60976C7.11244 6.68336 6.9165 6.79989 6.75001 6.95216C6.58352 7.10442 6.45 7.28919 6.35769 7.49507C6.26537 7.70094 6.21623 7.92354 6.2133 8.14915C6.21036 8.37475 6.25369 8.59856 6.34061 8.80677C6.42752 9.01497 6.55619 9.20316 6.71866 9.35971C6.88114 9.51626 7.07397 9.63785 7.28526 9.71698C7.49655 9.79611 7.72181 9.8311 7.94715 9.81979H7.96946C8.1975 9.83904 8.42704 9.81073 8.64357 9.73665C8.86009 9.66257 9.05887 9.54434 9.22732 9.38944C9.39578 9.23454 9.53023 9.04635 9.62217 8.83678C9.71411 8.62722 9.76153 8.40085 9.76143 8.172ZM9.55031 11.1226H6.38518V20.6523H9.55203L9.55031 11.1226ZM20.9784 15.1871C20.9784 12.2606 19.4164 10.896 17.331 10.896C16.7568 10.8725 16.1871 11.0068 15.6839 11.2843C15.1806 11.5617 14.7631 11.9718 14.4765 12.47V11.1209H11.3062C11.3491 12.0134 11.3062 20.654 11.3062 20.654H14.4782V15.3296C14.4657 15.068 14.5006 14.8063 14.5812 14.5572C14.6996 14.2202 14.919 13.9279 15.2096 13.7202C15.5002 13.5126 15.8478 13.3997 16.205 13.3969C17.355 13.3969 17.8116 14.2723 17.8116 15.5527V20.6557H20.9801L20.9784 15.1871ZM14.4559 12.5026L14.4765 12.47L14.4782 12.5026H14.4559Z" fill="white"/>
</svg>