<svg width="45" height="45" viewBox="0 0 45 45" fill="none" xmlns="http://www.w3.org/2000/svg">
<path d="M45 45H0V0H45V45ZM16.1624 13.5307C16.1634 13.1545 16.0867 12.7822 15.937 12.4371C15.7872 12.092 15.5678 11.7816 15.2923 11.5254C15.0169 11.2692 14.6915 11.0727 14.3365 10.9483C13.9815 10.8238 13.6046 10.7742 13.2294 10.8024C12.857 10.774 12.4826 10.8222 12.1295 10.944C11.7763 11.0659 11.4519 11.2588 11.1762 11.5109C10.9006 11.7631 10.6795 12.069 10.5267 12.4099C10.3738 12.7507 10.2925 13.1193 10.2876 13.4929C10.2827 13.8664 10.3545 14.237 10.4984 14.5817C10.6423 14.9264 10.8553 15.238 11.1243 15.4972C11.3934 15.7564 11.7126 15.9578 12.0625 16.0888C12.4123 16.2198 12.7853 16.2777 13.1584 16.259H13.1953C13.5729 16.2909 13.953 16.244 14.3115 16.1213C14.67 15.9987 14.9991 15.8029 15.278 15.5464C15.5569 15.29 15.7796 14.9784 15.9318 14.6314C16.084 14.2844 16.1625 13.9096 16.1624 13.5307ZM15.8128 18.4161H10.5722V34.1948H15.8156L15.8128 18.4161ZM34.7348 25.1459C34.7348 20.3003 32.1485 18.0409 28.6955 18.0409C27.7448 18.002 26.8016 18.2243 25.9684 18.6838C25.1351 19.1432 24.4437 19.8222 23.9693 20.647V18.4132H18.7202C18.7912 19.8911 18.7202 34.1976 18.7202 34.1976H23.9721V25.3818C23.9513 24.9487 24.0091 24.5154 24.1427 24.1029C24.3386 23.5449 24.702 23.061 25.1831 22.7171C25.6643 22.3733 26.2398 22.1863 26.8312 22.1817C28.7353 22.1817 29.4913 23.6311 29.4913 25.7512V34.2005H34.7376L34.7348 25.1459ZM23.9352 20.701L23.9693 20.647L23.9721 20.701H23.9352Z" fill="#FF007A"/>
</svg>
