<svg width="45" height="45" viewBox="0 0 45 45" fill="none" xmlns="http://www.w3.org/2000/svg">
<path d="M0 0V45H45V0H0ZM31.4824 19.002C31.4912 19.1953 31.4912 19.3975 31.4912 19.5996C31.4912 25.708 26.8418 32.7568 18.334 32.7568C15.7236 32.7568 13.2891 31.9922 11.25 30.6826C11.6104 30.7266 11.9795 30.7441 12.3574 30.7441C14.5195 30.7441 16.5146 30.0059 18.0967 28.7666C16.0752 28.7314 14.3613 27.3955 13.7812 25.5586C14.0625 25.6113 14.3525 25.6377 14.6514 25.6377C15.0732 25.6377 15.4863 25.585 15.873 25.4707C13.7549 25.0488 12.1641 23.1768 12.1641 20.9355V20.8828C12.7881 21.2256 13.5 21.4365 14.2559 21.4629C13.0166 20.6367 12.1992 19.2129 12.1992 17.6133C12.1992 16.7695 12.4277 15.9697 12.8232 15.2842C15.1084 18.0879 18.5098 19.9248 22.3506 20.1182C22.2715 19.7842 22.2275 19.4326 22.2275 19.0635C22.2275 16.5146 24.3018 14.4404 26.8506 14.4404C28.1777 14.4404 29.3818 15.0029 30.2256 15.8994C31.2803 15.6885 32.2646 15.3105 33.1611 14.7744C32.8184 15.8555 32.0801 16.7607 31.1309 17.332C32.0625 17.2178 32.959 16.9717 33.7852 16.6025C33.1699 17.5342 32.3877 18.3428 31.4824 19.002Z" fill="#FF007A"/>
</svg>
